<svg xmlns="http://www.w3.org/2000/svg" xmlns:xlink="http://www.w3.org/1999/xlink" x="0px" y="0px" width="18px" height="18px" viewBox="0 0 64 64"><g  transform="translate(8, 8)">
<path fill="none" stroke="#fff" stroke-width="2" stroke-linecap="round" stroke-miterlimit="10" d="M46,24c0-2.209-1.791-4-4-4 h-2.524c-0.378-1.464-0.953-2.845-1.703-4.115l1.784-1.784c1.562-1.562,1.562-4.095,0-5.657c-1.562-1.562-4.095-1.562-5.657,0 l-1.784,1.784c-1.27-0.75-2.651-1.326-4.115-1.703V6c0-2.209-1.791-4-4-4c-2.209,0-4,1.791-4,4v2.524 c-1.464,0.378-2.845,0.953-4.115,1.703l-1.784-1.784c-1.562-1.562-4.095-1.562-5.657,0c-1.562,1.562-1.562,4.095,0,5.657 l1.784,1.784c-0.75,1.27-1.326,2.651-1.703,4.115H6c-2.209,0-4,1.791-4,4c0,2.209,1.791,4,4,4h2.524 c0.378,1.464,0.953,2.845,1.703,4.115l-1.784,1.784c-1.562,1.562-1.562,4.095,0,5.657c1.562,1.562,4.095,1.562,5.657,0l1.784-1.784 c1.27,0.75,2.651,1.326,4.115,1.703V42c0,2.209,1.791,4,4,4c2.209,0,4-1.791,4-4v-2.524c1.464-0.378,2.845-0.953,4.115-1.703 l1.784,1.784c1.562,1.562,4.095,1.562,5.657,0c1.562-1.562,1.562-4.095,0-5.657l-1.784-1.784c0.75-1.27,1.326-2.651,1.703-4.115H42 C44.209,28,46,26.209,46,24z" stroke-linejoin="round"/>
<circle data-color="color-2" fill="none" stroke="#fff" stroke-width="2" stroke-linecap="round" stroke-miterlimit="10" cx="24" cy="24" r="6" stroke-linejoin="round"/>
</g></svg>