<svg xmlns="http://www.w3.org/2000/svg" xmlns:xlink="http://www.w3.org/1999/xlink" x="0px" y="0px" width="18px" height="18px" viewBox="0 0 48 48"><g  transform="translate(0.5, 0.5)">
<path fill="none" stroke="#444444" stroke-width="3" stroke-linecap="square" stroke-miterlimit="10" d="M24.955,31 c0.141,2.34-0.682,4.727-2.47,6.515l-5,5c-3.314,3.314-8.686,3.314-12,0l0,0c-3.314-3.314-3.314-8.686,0-12l5-5 c1.788-1.788,4.175-2.611,6.515-2.47" stroke-linejoin="miter"/>
<path fill="none" stroke="#444444" stroke-width="3" stroke-linecap="square" stroke-miterlimit="10" d="M31,24.955 c2.34,0.141,4.727-0.682,6.515-2.47l5-5c3.314-3.314,3.314-8.686,0-12l0,0c-3.314-3.314-8.686-3.314-12,0l-5,5 c-1.788,1.788-2.611,4.175-2.47,6.515" stroke-linejoin="miter"/>
<line data-color="color-2" fill="none" stroke="#444444" stroke-width="3" stroke-linecap="square" stroke-miterlimit="10" x1="18" y1="30" x2="30" y2="18" stroke-linejoin="miter"/>
</g></svg>