<svg xmlns="http://www.w3.org/2000/svg" xmlns:xlink="http://www.w3.org/1999/xlink" x="0px" y="0px" width="18px" height="18px" viewBox="0 0 48 48"><path  fill="none" stroke="#444444" stroke-width="3" stroke-linecap="square" stroke-miterlimit="10" d="M40,20 c-0.7,0-1.4,0.1-2,0.4V10H27.6C27.9,9.4,28,8.7,28,8c0-3.3-2.7-6-6-6s-6,2.7-6,6c0,0.7,0.1,1.4,0.4,2H4v10c3.3,0,6,2.7,6,6 s-2.7,6-6,6v10h12c0-3.3,2.7-6,6-6s6,2.7,6,6h10V31.6c0.6,0.2,1.3,0.4,2,0.4c3.3,0,6-2.7,6-6S43.3,20,40,20z" transform="translate(0.5, 0.5)" stroke-linejoin="miter"/></svg>
