<svg xmlns="http://www.w3.org/2000/svg" xmlns:xlink="http://www.w3.org/1999/xlink" x="0px" y="0px" width="18px" height="18px" viewBox="0 0 48 48"><g  transform="translate(0.5, 0.5)">
<line fill="none" stroke="#444444" stroke-width="3" stroke-linecap="square" stroke-miterlimit="10" x1="16" y1="8" x2="46" y2="8" stroke-linejoin="miter"/>
<line fill="none" stroke="#444444" stroke-width="3" stroke-linecap="square" stroke-miterlimit="10" x1="16" y1="24" x2="34" y2="24" stroke-linejoin="miter"/>
<line fill="none" stroke="#444444" stroke-width="3" stroke-linecap="square" stroke-miterlimit="10" x1="16" y1="40" x2="46" y2="40" stroke-linejoin="miter"/>
<polyline data-color="color-2" fill="none" stroke="#444444" stroke-width="3" stroke-linecap="square" stroke-miterlimit="10" points=" 2,4 5,4 5,12 " stroke-linejoin="miter"/>
<path data-color="color-2" fill="none" stroke="#444444" stroke-width="3" stroke-linecap="square" stroke-miterlimit="10" d="M2,37L2,37 c0-1.10457,0.89543-2,2-2h2c1.10457,0,2,0.89543,2,2v1c0,1.10457-0.89543,2-2,2H5" stroke-linejoin="miter"/>
<path data-color="color-2" fill="none" stroke="#444444" stroke-width="3" stroke-linecap="square" stroke-miterlimit="10" d="M2,43L2,43 c0,1.10457,0.89543,2,2,2h2c1.10457,0,2-0.89543,2-2v-1c0-1.10457-0.89543-2-2-2H5" stroke-linejoin="miter"/>
<line data-color="color-2" fill="none" stroke="#444444" stroke-width="3" stroke-linecap="square" stroke-miterlimit="10" x1="2" y1="12" x2="8" y2="12" stroke-linejoin="miter"/>
<path data-color="color-2" fill="none" stroke="#444444" stroke-width="3" stroke-linecap="square" stroke-miterlimit="10" d="M2,22L2,22 c0-1.10457,0.89543-2,2-2h1c1.10457,0,2,0.89543,2,2v0.03875c0,0.60757-0.27618,1.18219-0.75061,1.56174L2,27v1h6" stroke-linejoin="miter"/>
</g></svg>