<?xml version="1.0" encoding="UTF-8" standalone="no"?>
<!DOCTYPE svg PUBLIC "-//W3C//DTD SVG 1.1//EN" "http://www.w3.org/Graphics/SVG/1.1/DTD/svg11.dtd">
<svg version="1.1" xmlns="http://www.w3.org/2000/svg" xmlns:xlink="http://www.w3.org/1999/xlink" preserveAspectRatio="xMidYMid meet" viewBox="0 0 300 150" width="300" height="150"><defs><path d="M231.26 106.11C234.28 106.11 236.73 103.67 236.73 100.65C236.73 88.61 236.73 57.99 236.73 45.96C236.73 42.94 234.28 40.49 231.26 40.49C199.54 40.49 109.86 40.49 78.14 40.49C75.12 40.49 72.67 42.94 72.67 45.96C72.67 57.99 72.67 88.61 72.67 100.65C72.67 103.67 75.12 106.11 78.14 106.11C109.86 106.11 199.54 106.11 231.26 106.11Z" id="d39hxjf8F"></path><path d="M65.74 28.44C61.8 28.44 58.61 31.63 58.61 35.57C58.61 51.91 58.61 93.8 58.61 110.14C58.61 114.08 61.8 117.28 65.74 117.28C102.75 117.28 206.63 117.28 243.63 117.28C247.57 117.28 250.77 114.08 250.77 110.14C250.77 93.8 250.77 51.91 250.77 35.57C250.77 31.63 247.57 28.44 243.63 28.44C206.63 28.44 102.75 28.44 65.74 28.44Z" id="cGwqPJN5l"></path></defs><g visibility="inherit"><g visibility="inherit"><g visibility="inherit"><use xlink:href="#d39hxjf8F" opacity="1" fill="#8da7ad" fill-opacity="0.2"></use><g><use xlink:href="#d39hxjf8F" opacity="1" fill-opacity="0" stroke="#8da7ad" stroke-width="3" stroke-opacity="1"></use></g></g><g visibility="inherit"><g><use xlink:href="#cGwqPJN5l" opacity="1" fill-opacity="0" stroke="#8da7ad" stroke-width="6" stroke-opacity="1"></use></g></g></g></g></svg>
