<svg version="1.1" xmlns="http://www.w3.org/2000/svg" xmlns:xlink="http://www.w3.org/1999/xlink" x="0px" y="0px" viewBox="-1 0 34 34" xml:space="preserve" width="18px" height="18px"><g class="nc-icon-wrapper" fill="#444" ><path fill="none" stroke="#444444" stroke-width="2" d="M31.7,9.6c0,0-0.3-2.2-1.3-3.2c-1.2-1.3-2.6-1.3-3.2-1.4C22.7,4.7,16,4.7,16,4.7h0c0,0-6.7,0-11.2,0.3 c-0.6,0.1-2,0.1-3.2,1.4c-1,1-1.3,3.2-1.3,3.2S0,12.2,0,14.8v2.4c0,2.6,0.3,5.2,0.3,5.2s0.3,2.2,1.3,3.2c1.2,1.3,2.8,1.2,3.5,1.4 C7.7,27.2,16,27.3,16,27.3s6.7,0,11.2-0.3c0.6-0.1,2-0.1,3.2-1.4c1-1,1.3-3.2,1.3-3.2s0.3-2.6,0.3-5.2v-2.4 C32,12.2,31.7,9.6,31.7,9.6z M12.7,20.2l0-9l8.6,4.5L12.7,20.2z"></path></g></svg>